<?xml version="1.0" encoding="UTF-8" standalone="no"?>
<svg xmlns:dc="http://purl.org/dc/elements/1.1/" 
  xmlns:cc="http://creativecommons.org/ns#" 
  xmlns:rdf="http://www.w3.org/1999/02/22-rdf-syntax-ns#" 
  xmlns:svg="http://www.w3.org/2000/svg" 
  xmlns="http://www.w3.org/2000/svg" viewBox="0 0 672 672" height="672" width="672" xml:space="preserve" id="svg2" version="1.1">
  <metadata id="metadata8">
    <rdf:RDF>
      <cc:Work rdf:about="">
        <dc:format>image/svg+xml</dc:format>
        <dc:type rdf:resource="http://purl.org/dc/dcmitype/StillImage" />
      </cc:Work>
    </rdf:RDF>
  </metadata>
  <defs id="defs6" />
  <g transform="matrix(1.3333333,0,0,-1.3333333,0,672)" id="g10">
    <g transform="scale(0.1)" id="g12">
      <path id="path14" style="fill:#fff;fill-opacity:1;fill-rule:nonzero;stroke:none" d="m 2519.22,5040 c -684.18,0 -769.96,-2.89 -1038.67,-15.16 -268.17,-12.22 -451.29,-54.8 -611.53,-117.11 C 703.359,4843.36 562.891,4757.23 422.809,4617.19 282.77,4477.15 196.641,4336.64 132.27,4170.98 70,4010.74 27.3789,3827.62 15.1602,3559.45 2.89063,3290.74 0,3204.96 0,2520.78 0,1836.6 2.89063,1750.82 15.1602,1482.15 27.3789,1213.98 70,1030.86 132.27,870.621 196.641,704.961 282.77,564.449 422.809,424.41 562.891,284.379 703.359,198.199 869.02,133.832 1029.26,71.5586 1212.38,28.9805 1480.55,16.7617 1749.26,4.49219 1835.04,1.60156 2519.22,1.60156 c 684.18,0 769.96,2.89063 1038.63,15.16014 268.17,12.2188 451.29,54.7969 611.53,117.0703 165.66,64.367 306.17,150.547 446.21,290.578 140.03,140.039 226.21,280.551 290.58,446.211 62.27,160.239 104.85,343.359 117.07,611.529 12.27,268.67 15.16,354.45 15.16,1038.63 0,684.18 -2.89,769.96 -15.16,1038.67 -12.22,268.17 -54.8,451.29 -117.07,611.53 -64.37,165.66 -150.55,306.17 -290.58,446.21 -140.04,140.04 -280.55,226.17 -446.21,290.54 -160.24,62.31 -343.36,104.89 -611.53,117.11 -268.67,12.27 -354.45,15.16 -1038.63,15.16 z m 0,-453.91 c 672.66,0 752.3,-2.57 1017.97,-14.68 245.62,-11.21 378.98,-52.27 467.77,-86.76 117.58,-45.7 201.52,-100.27 289.65,-188.44 88.16,-88.16 142.77,-172.07 188.48,-289.65 34.49,-88.79 75.5,-222.18 86.71,-467.77 12.11,-265.67 14.69,-345.35 14.69,-1018.01 0,-672.66 -2.58,-752.3 -14.69,-1017.97 -11.21,-245.62 -52.22,-378.98 -86.71,-467.77 -45.71,-117.579 -100.32,-201.52 -188.48,-289.649 -88.13,-88.161 -172.07,-142.77 -289.65,-188.481 -88.79,-34.488 -222.15,-75.5 -467.77,-86.711 -265.63,-12.109 -345.28,-14.687 -1017.97,-14.687 -672.74,0 -752.38,2.578 -1018.01,14.687 -245.59,11.211 -378.98,52.223 -467.77,86.711 -117.581,45.711 -201.491,100.32 -289.651,188.481 -88.168,88.129 -142.738,172.07 -188.437,289.649 -34.493,88.79 -75.551,222.15 -86.762,467.77 -12.11,265.67 -14.68,345.31 -14.68,1017.97 0,672.66 2.57,752.34 14.68,1018.01 11.211,245.59 52.269,378.98 86.762,467.77 45.699,117.58 100.269,201.49 188.437,289.65 88.16,88.17 172.07,142.74 289.651,188.44 88.79,34.49 222.18,75.55 467.77,86.76 265.67,12.11 345.35,14.68 1018.01,14.68" />
      <path id="path16" style="fill:#fff;fill-opacity:1;fill-rule:nonzero;stroke:none" d="m 2519.22,1681.05 c -463.79,0 -839.77,375.98 -839.77,839.73 0,463.79 375.98,839.77 839.77,839.77 463.75,0 839.73,-375.98 839.73,-839.77 0,-463.75 -375.98,-839.73 -839.73,-839.73 z m 0,2133.4 c -714.49,0 -1293.67,-579.18 -1293.67,-1293.67 0,-714.45 579.18,-1293.63 1293.67,-1293.63 714.45,0 1293.63,579.18 1293.63,1293.63 0,714.49 -579.18,1293.67 -1293.63,1293.67" />
      <path id="path18" style="fill:#fff;fill-opacity:1;fill-rule:nonzero;stroke:none" d="m 4166.29,3865.55 c 0,-166.96 -135.35,-302.31 -302.34,-302.31 -166.96,0 -302.31,135.35 -302.31,302.31 0,166.95 135.35,302.3 302.31,302.3 166.99,0 302.34,-135.35 302.34,-302.3" />
    </g>
  </g>
</svg>
